<svg width="500" height="500" viewBox="0 0 500 500" fill="none" xmlns="http://www.w3.org/2000/svg">
<path d="M466.066 249.974C458.333 281.999 440.076 310.487 414.222 330.912C388.349 351.337 356.405 362.487 323.462 362.585H176.538C143.596 362.487 111.652 351.337 85.7777 330.912C59.9237 310.487 41.6661 281.997 33.9338 249.974C10.4818 277.039 -1.60562 312.091 0.171504 347.864C1.96797 383.617 17.4918 417.304 43.5217 441.888C69.5512 466.473 104.074 480.044 139.886 479.79H360.114C395.927 480.044 430.449 466.473 456.478 441.888C482.508 417.304 498.032 383.621 499.829 347.864C501.606 312.09 489.518 277.039 466.066 249.974Z" fill="url(#paint0_linear_193_155)"/>
<path d="M176.538 333.297H323.462C352.694 333.179 380.87 322.205 402.47 302.502C424.086 282.799 437.579 255.754 440.372 226.638V215.938V215.957C440.352 207.6 439.454 199.262 437.736 191.099C431.995 164.933 417.486 141.52 396.65 124.708C375.795 107.895 349.824 98.6984 323.031 98.6199H229.731L195.715 69.4661L140.182 21V104.577L140.162 104.597C133.133 106.901 126.357 109.869 119.893 113.481C90.3095 129.884 69.164 158.198 61.8406 191.24C60.1222 199.421 59.2435 207.74 59.2044 216.098V226.798V226.779C62.0359 255.952 75.6269 282.997 97.3213 302.703C119.016 322.386 147.252 333.302 176.544 333.302L176.538 333.297Z" fill="url(#paint1_linear_193_155)"/>
<defs>
<linearGradient id="paint0_linear_193_155" x1="27.5" y1="47.5" x2="500" y2="519.5" gradientUnits="userSpaceOnUse">
<stop stop-color="#00DDFF"/>
<stop offset="1" stop-color="#FF00D4"/>
</linearGradient>
<linearGradient id="paint1_linear_193_155" x1="27.5" y1="47.5" x2="500" y2="519.5" gradientUnits="userSpaceOnUse">
<stop stop-color="#00DDFF"/>
<stop offset="1" stop-color="#FF00D4"/>
</linearGradient>
</defs>
</svg>
